<?xml version="1.0" encoding="utf-8"?>
<!-- Generator: Adobe Illustrator 21.0.0, SVG Export Plug-In . SVG Version: 6.00 Build 0)  -->
<svg version="1.1" id="Layer_1" xmlns="http://www.w3.org/2000/svg" xmlns:xlink="http://www.w3.org/1999/xlink" x="0px" y="0px"
	 viewBox="0 0 400 400" style="enable-background:new 0 0 400 400;" xml:space="preserve">
<style type="text/css">
	.st0{display:none;}
	.st1{display:inline;fill-rule:evenodd;clip-rule:evenodd;fill:url(#SVGID_1_);}
	.st2{display:inline;fill-rule:evenodd;clip-rule:evenodd;fill:url(#SVGID_2_);}
	.st3{fill-rule:evenodd;clip-rule:evenodd;fill:url(#SVGID_3_);}
	.st4{fill-rule:evenodd;clip-rule:evenodd;fill:url(#SVGID_4_);}
	.st5{fill:url(#SVGID_5_);}
	.st6{fill:url(#SVGID_6_);}
	.st7{fill:url(#SVGID_7_);}
	.st8{fill:url(#SVGID_8_);}
	.st9{fill-rule:evenodd;clip-rule:evenodd;fill:url(#SVGID_9_);stroke:url(#SVGID_10_);stroke-miterlimit:10;}
	.st10{fill:#FFFFFF;}
</style>
<g class="st0">
	<linearGradient id="SVGID_1_" gradientUnits="userSpaceOnUse" x1="19" y1="200.0272" x2="381" y2="200.0272">
		<stop  offset="0" style="stop-color:#E9AC21"/>
		<stop  offset="0.5" style="stop-color:#EEE84C"/>
		<stop  offset="1" style="stop-color:#E9AC21"/>
	</linearGradient>
	<path class="st1" d="M378.3,103.3c-8-20.3-32.7-29.5-67-29.5c24.2,2,41.2,9.8,46.8,24.1c14.2,36-47.5,91.3-137.9,126.9
		c-90.4,35.6-174,47.4-183.2,9.8c-6.3-25.7,11.9-58.4,49.9-87.8c-48.8,30.5-74.8,64.2-66.5,96.7c8.3,32.4,61.3,41.5,127.3,29.5v31.3
		h-18.5l-7.5,22h166.6l-7.5-22h-18.5v-69.4C342.9,195.8,393.4,141.6,378.3,103.3z M174.3,304.2v-37.1c5.8-1.5,11.7-3.1,17.6-4.9v42
		H174.3z M235.9,304.2h-17.6v-50.7c3.7-1.3,15.4-5.9,17.6-6.8V304.2z"/>
	<linearGradient id="SVGID_2_" gradientUnits="userSpaceOnUse" x1="89.3833" y1="149.7952" x2="321.7336" y2="149.7952">
		<stop  offset="0" style="stop-color:#5D411D"/>
		<stop  offset="0.5" style="stop-color:#FCDC57"/>
		<stop  offset="1" style="stop-color:#5D411D"/>
	</linearGradient>
	<path class="st2" d="M271.6,73.8c-7.1,0-20.1,0-20.1,0H157c0,0-11.3,0-17.5,0c-27.7,0-50.2,22.5-50.2,50.2
		c0,27.7,22.5,50.2,50.2,50.2c2.8,0,5.6-0.2,8.3-0.7v52.4c8.5-2.1,17.4-4.6,26.4-7.4v-58.3c5.2-5,8-11,10.7-17.8h6.9v70.3
		c8.7-3,17.5-6.2,26.4-9.7v-60.6h7.9c2.5,6.3,5,12.1,9.7,16.8v36.6c9.2-4,18-8.2,26.4-12.5v-10c3,0.6,6.1,0.9,9.3,0.9
		c27.7,0,50.2-22.5,50.2-50.2C321.7,96.2,299.3,73.8,271.6,73.8z M223,118.8h-35.8l-3.8-6.9h43.4L223,118.8z M274.7,158
		c-11.2,1.4-20.8-1.9-28.2-10.5c-6.4-7.5-7.8-16.4-5.1-25.8c3.3-11.9,13.2-19.1,25.7-19.9c5.5-0.3,10.7,0.5,15.3,3.6
		c7.2,4.9,10.9,11.8,10.2,20.5c-0.8,9-6,15.2-14.3,18.6c-6.5,2.6-13,1.9-19.1-1.6c-5-2.9-6.8-7.5-6.7-12.9c0.3-9.4,6.7-13.7,14-15
		c3.8-0.7,7.1,0.4,9.6,3.4c2.2,2.6,2.9,5.5,1.7,8.7c-1.2,3.1-3.8,4.5-6.9,4.9c-1.3,0.2-2.7,0-3.9-0.4c-1.7-0.5-2.5-2-2.1-3.7
		c0.3-1.4,1.4-2.2,3.2-2.2c0.5,0,1,0.1,1.6,0.1c1.2-0.1,2-0.6,2.2-1.8c0.2-1.2-0.6-2.1-1.8-2.4c-3.7-0.9-8.3,1.1-10,4.6
		c-2.8,5.5,0,11.6,6.3,13.2c9.2,2.3,17.8-3.1,20-11.5c1.9-7.6-2.4-15.9-9.9-18.5c-15.5-5.4-28.2,5.2-29.5,17.7
		c-1.5,14.1,7.7,23.1,18.7,24.8c9.4,1.5,17.9-1.1,24.9-7.6c8-7.5,10.4-19.6,6.3-29.8c-2.6-6.3-6.5-11.5-12.5-14.9
		c-3.1-1.8-6.5-2.8-10-3c-4.2-0.3-8.4-0.2-12.7-0.2c-0.9,0-1.8,0.1-2.7,0.1c-34.8,0-69.7,0-104.5,0c-4.9,0-9.8-0.4-14.7-0.3
		c-10.2,0.3-18.5,4.5-23.9,13.3c-6,9.9-5.6,20.1-0.2,30.1c1.8,3.4,4.7,6,8,7.9c7.4,4.2,15.2,5.9,23.6,3.6
		c9.7-2.6,16.1-10.4,16.3-20.4c0.3-14.3-10.4-22.3-21.2-22.6c-4.2-0.1-8.1,0.8-11.7,3.1c-8,5.2-9.5,15.3-3.6,22.7
		c4.2,5.3,11,7.5,17.1,5.6c2-0.6,3.6-1.7,5-3.3c2.5-2.9,2.9-6.2,1.1-9.7c-1.7-3.3-5.2-5.3-8.8-4.9c-0.4,0-0.7,0.1-1.1,0.2
		c-1.7,0.4-2.5,1.3-2.2,2.5c0.2,1.2,1.2,1.7,3,1.5c2.3-0.3,3.3,0.2,3.8,2c0.5,1.7-0.1,3.2-1.8,3.8c-3.2,1.2-6.2,0.6-8.8-1.5
		c-2.5-2.1-3.4-4.8-2.6-8c1-4,4.4-7,8.7-7.1c6.3-0.2,11.5,2.4,14.8,7.8c3.8,6.2,2.4,15.1-4.9,20.2c-5.4,3.7-11.3,3.9-17.3,2
		c-10.8-3.3-15.7-12-15.7-21.1c0-10.5,7.5-20.5,19.8-21.8c6.2-0.7,12.3-0.1,17.9,3.1c18.7,10.6,17.9,34.1,6.2,44.9
		c-9.6,8.9-25.6,12-38.7,3.8c-8.2-5.1-14.3-11.9-16.3-21.6c-2.4-12-0.1-23,8.8-31.9c5.9-6,13.2-9.6,21.7-10.4
		c2.2-0.2,4.4-0.3,6.7-0.3c20.1,0,40.3,0,60.4,0c0,0,0,0,0,0c20.8,0,41.6,0,62.4,0c5.9,0,11.7,0.6,17.2,3
		c11.9,5.2,18.7,14.3,20.8,27C307.5,139.2,292.4,155.9,274.7,158z"/>
</g>
<g>
	<g>
		<linearGradient id="SVGID_3_" gradientUnits="userSpaceOnUse" x1="6.7633" y1="187.7211" x2="202.4683" y2="187.7211">
			<stop  offset="0" style="stop-color:#E9AC21"/>
			<stop  offset="0.5" style="stop-color:#EEE84C"/>
			<stop  offset="1" style="stop-color:#E9AC21"/>
		</linearGradient>
		<path class="st3" d="M201,135.4c-4.3-11-17.7-16-36.2-15.9c13.1,1.1,22.3,5.3,25.3,13c7.7,19.4-25.7,49.4-74.5,68.6
			c-48.9,19.2-94.1,25.6-99,5.3c-3.4-13.9,6.4-31.5,27-47.5c-26.4,16.5-40.4,34.7-35.9,52.3c4.5,17.5,33.1,22.4,68.8,15.9v16.9h-10
			L62.3,256h90.1l-4.1-11.9h-10v-37.5C181.9,185.4,209.2,156.1,201,135.4z M90.7,244.1V224c3.1-0.8,6.3-1.7,9.5-2.6v22.7H90.7z
			 M124,244.1h-9.5v-27.4c2-0.7,8.3-3.2,9.5-3.7V244.1z"/>
		<linearGradient id="SVGID_4_" gradientUnits="userSpaceOnUse" x1="44.814" y1="160.5646" x2="170.4276" y2="160.5646">
			<stop  offset="0" style="stop-color:#5D411D"/>
			<stop  offset="0.5" style="stop-color:#FCDC57"/>
			<stop  offset="1" style="stop-color:#5D411D"/>
		</linearGradient>
		<path class="st4" d="M143.3,119.5c-3.9,0-10.8,0-10.8,0H81.4c0,0-6.1,0-9.5,0c-15,0-27.1,12.1-27.1,27.1c0,15,12.1,27.1,27.1,27.1
			c1.5,0,3-0.1,4.5-0.4v28.4c4.6-1.2,9.4-2.5,14.3-4v-31.5c2.8-2.7,4.3-5.9,5.8-9.6h3.7v38c4.7-1.6,9.5-3.4,14.3-5.2v-32.8h4.3
			c1.4,3.4,2.7,6.5,5.2,9.1v19.8c5-2.2,9.7-4.4,14.3-6.8v-5.4c1.6,0.3,3.3,0.5,5,0.5c15,0,27.1-12.1,27.1-27.1
			C170.4,131.6,158.3,119.5,143.3,119.5z M117,143.8H97.7l-2-3.7h23.5L117,143.8z M145,165c-6,0.7-11.3-1.1-15.2-5.7
			c-3.5-4.1-4.2-8.8-2.8-13.9c1.8-6.4,7.1-10.3,13.9-10.7c3-0.2,5.8,0.3,8.3,2c3.9,2.6,5.9,6.4,5.5,11.1c-0.4,4.9-3.2,8.2-7.7,10
			c-3.5,1.4-7,1-10.3-0.9c-2.7-1.5-3.7-4-3.6-7c0.1-5.1,3.6-7.4,7.6-8.1c2-0.4,3.8,0.2,5.2,1.9c1.2,1.4,1.6,3,0.9,4.7
			c-0.7,1.7-2.1,2.4-3.7,2.6c-0.7,0.1-1.5,0-2.1-0.2c-0.9-0.3-1.3-1.1-1.1-2c0.2-0.7,0.8-1.2,1.7-1.2c0.3,0,0.6,0.1,0.8,0
			c0.6,0,1.1-0.3,1.2-1c0.1-0.6-0.3-1.1-1-1.3c-2-0.5-4.5,0.6-5.4,2.5c-1.5,3,0,6.3,3.4,7.1c5,1.3,9.6-1.7,10.8-6.2
			c1-4.1-1.3-8.6-5.4-10c-8.4-2.9-15.2,2.8-15.9,9.6c-0.8,7.6,4.2,12.5,10.1,13.4c5.1,0.8,9.7-0.6,13.5-4.1
			c4.3-4.1,5.6-10.6,3.4-16.1c-1.4-3.4-3.5-6.2-6.8-8c-1.7-1-3.5-1.5-5.4-1.6c-2.3-0.2-4.6-0.1-6.9-0.1c-0.5,0-1,0-1.4,0
			c-18.8,0-37.7,0-56.5,0c-2.6,0-5.3-0.2-7.9-0.2c-5.5,0.2-10,2.4-12.9,7.2c-3.2,5.3-3,10.9-0.1,16.3c1,1.8,2.5,3.2,4.4,4.2
			c4,2.3,8.2,3.2,12.7,2c5.2-1.4,8.7-5.6,8.8-11.1c0.2-7.7-5.6-12-11.5-12.2c-2.3-0.1-4.4,0.4-6.3,1.7c-4.3,2.8-5.2,8.2-1.9,12.3
			c2.3,2.9,5.9,4.1,9.3,3c1.1-0.3,2-0.9,2.7-1.8c1.4-1.6,1.6-3.4,0.6-5.3c-0.9-1.8-2.8-2.9-4.7-2.7c-0.2,0-0.4,0.1-0.6,0.1
			c-0.9,0.2-1.3,0.7-1.2,1.4c0.1,0.7,0.7,0.9,1.6,0.8c1.3-0.1,1.8,0.1,2.1,1.1c0.3,0.9-0.1,1.7-1,2.1c-1.7,0.7-3.3,0.3-4.7-0.8
			c-1.4-1.1-1.8-2.6-1.4-4.3c0.6-2.2,2.4-3.8,4.7-3.8c3.4-0.1,6.2,1.3,8,4.2c2.1,3.4,1.3,8.2-2.7,10.9c-2.9,2-6.1,2.1-9.3,1.1
			c-5.9-1.8-8.5-6.5-8.5-11.4c0-5.7,4.1-11.1,10.7-11.8c3.4-0.4,6.6-0.1,9.7,1.7c10.1,5.7,9.7,18.4,3.3,24.3
			c-5.2,4.8-13.8,6.5-20.9,2.1c-4.4-2.8-7.7-6.4-8.8-11.7c-1.3-6.5,0-12.4,4.8-17.2c3.2-3.2,7.1-5.2,11.7-5.6
			c1.2-0.1,2.4-0.2,3.6-0.2c10.9,0,21.8,0,32.7,0c0,0,0,0,0,0c11.2,0,22.5,0,33.7,0c3.2,0,6.3,0.3,9.3,1.6
			c6.4,2.8,10.1,7.7,11.2,14.6C162.7,154.8,154.5,163.8,145,165z"/>
	</g>
	<g>
		<linearGradient id="SVGID_5_" gradientUnits="userSpaceOnUse" x1="169.1606" y1="226.5505" x2="388.0319" y2="226.5505">
			<stop  offset="0" style="stop-color:#E9AC21"/>
			<stop  offset="0.5" style="stop-color:#EEE84C"/>
			<stop  offset="1" style="stop-color:#E9AC21"/>
		</linearGradient>
		<polygon class="st5" points="209.8,222.4 182.4,222.4 182.4,193.9 170,193.9 170,259.1 182.5,259.1 182.4,230.4 209.9,230.4 
			209.8,259.1 222.8,259.2 222.8,193.9 209.8,193.9 		"/>
		<linearGradient id="SVGID_6_" gradientUnits="userSpaceOnUse" x1="169.1605" y1="226.2767" x2="388.0319" y2="226.2767">
			<stop  offset="0" style="stop-color:#E9AC21"/>
			<stop  offset="0.5" style="stop-color:#EEE84C"/>
			<stop  offset="1" style="stop-color:#E9AC21"/>
		</linearGradient>
		<path class="st6" d="M327.1,250.5c-2.5-2.4-4.5-5-6.2-7.9c-2.4-4-7.1-12.9-7.1-12.9s8-3.8,10.1-10.6c1.5-4.1,1.7-8.3,0.9-12.6
			c-0.9-5-3.7-8.6-8.4-10.7c-3.5-1.6-7.3-2.4-11.1-2.4c-4.8-0.1-20.4,0-20.4,0l0,65.8l12.3,0l0.1-27.2h3.9c0,0,5.3,10.4,7.8,14.9
			c1.7,3.2,3.8,6.3,6.5,8.8c1.9,1.7,4,2.9,6.6,3.3c2.9,0.5,5.8,0.5,8.6,0.1c1.3-0.2,2.5-0.4,3.7-1c0-1.4,0-4.3,0-4.3
			S331.2,254.5,327.1,250.5z M311.5,218c-0.7,3-2.5,5.1-5.5,6.2c-2.5,0.9-8.3,1-8.6,0.9c0-8.2,0-16.4,0-24.6
			c0.4-0.1,6.1-0.4,8.4,0.3c3.7,1.1,5.5,3.7,6.1,7.3C312.4,211.4,312.2,214.7,311.5,218z"/>
		<linearGradient id="SVGID_7_" gradientUnits="userSpaceOnUse" x1="169.1608" y1="226.5505" x2="388.032" y2="226.5505">
			<stop  offset="0" style="stop-color:#E9AC21"/>
			<stop  offset="0.5" style="stop-color:#EEE84C"/>
			<stop  offset="1" style="stop-color:#E9AC21"/>
		</linearGradient>
		<polygon class="st7" points="249.8,229.3 270.6,229.4 270.6,222.3 249.8,222.2 249.8,201.4 273,201.4 272.9,193.9 237.2,193.9 
			237.2,259.2 274.3,259.2 274.3,252.1 249.8,252.1 		"/>
		<linearGradient id="SVGID_8_" gradientUnits="userSpaceOnUse" x1="169.1602" y1="226.2477" x2="388.0318" y2="226.2477">
			<stop  offset="0" style="stop-color:#E9AC21"/>
			<stop  offset="0.5" style="stop-color:#EEE84C"/>
			<stop  offset="1" style="stop-color:#E9AC21"/>
		</linearGradient>
		<path class="st8" d="M357.8,248.2c-1.7-1.9-2.8-4.1-3.6-6.5c-1.5-4.3-2-8.8-2-13.3c0-3.8,0-7.6,0.3-11.3c0.2-2.5,0.6-5,1.2-7.5
			c1.1-4.5,4.2-7.1,8.6-7.8c2.8-0.4,5.8-0.4,8.6-0.2c4.6,0.3,9.1,1.1,13.5,2.2c0.3,0.1,1.1,0.1,1.1,0.1l2.3-9.2c0,0-1-0.3-1.4-0.3
			c-2.5-0.4-5.1-0.7-7.6-1c-5-0.5-10.1-0.7-15.1,0.3c-8.3,1.7-15.2,5.7-19.9,13c-3.3,5.1-4.7,10.8-4.9,16.8c-0.1,2.6,0,5.3,0.2,7.9
			c0.3,4.8,1.2,9.5,3.1,13.9c3.2,7.3,8.7,11.9,16.6,13.5c3.2,0.6,6.5,0.8,9.8,0.5c11.5-1.1,19.3-4.6,19.3-4.6l0-5.5
			c0,0-9.3,3.1-20.5,3C363.8,252.2,360.5,251,357.8,248.2z"/>
	</g>
	<g>
		<g>
			<linearGradient id="SVGID_9_" gradientUnits="userSpaceOnUse" x1="55.1813" y1="270.7947" x2="393.2367" y2="270.7947">
				<stop  offset="0" style="stop-color:#5D411D"/>
				<stop  offset="0.5" style="stop-color:#FCDC57"/>
				<stop  offset="1" style="stop-color:#5D411D"/>
			</linearGradient>
			<linearGradient id="SVGID_10_" gradientUnits="userSpaceOnUse" x1="54.6813" y1="270.7947" x2="393.7367" y2="270.7947">
				<stop  offset="0" style="stop-color:#5D411D"/>
				<stop  offset="0.5" style="stop-color:#FCDC57"/>
				<stop  offset="1" style="stop-color:#5D411D"/>
			</linearGradient>
			<rect x="55.2" y="261.1" class="st9" width="338.1" height="19.5"/>
		</g>
		<g>
			<path d="M298.4,277.7h-8.8v-14.8h2.3v12.6h6.5V277.7z"/>
			<path d="M255.9,271.3c0,4.4-2.1,6.6-6.2,6.6c-4,0-6-2.2-6-6.5v-8.5h2.7v8.6c0,2.4,0.2,4.3,3.5,4.3c3,0,3.4-1.8,3.4-4.1v-8.7h2.6
				V271.3z"/>
			<polygon points="76.5,269.2 70.4,269.2 70.4,262.9 67.6,262.9 67.6,277.4 70.4,277.4 70.4,271 76.5,271 76.5,277.4 79.4,277.4 
				79.4,262.9 76.5,262.9 			"/>
			<path d="M165,275.6c-0.5-0.5-1-1.1-1.4-1.8c-0.5-0.9-1.6-2.9-1.6-2.9s1.8-0.8,2.2-2.4c0.3-0.9,0.4-1.8,0.2-2.8
				c-0.2-1.1-0.8-1.9-1.9-2.4c-0.8-0.4-1.6-0.5-2.5-0.5c-1.1,0-4.5,0-4.5,0l0,14.5l2.7,0l0-5.9h0.9c0,0,1.2,2.3,1.7,3.3
				c0.4,0.7,0.8,1.4,1.4,2c0.4,0.4,0.9,0.6,1.5,0.7c0.6,0.1,1.3,0.1,1.9,0c0.3,0,0.6-0.1,0.8-0.2c0-0.3,0-1,0-1S166,276.5,165,275.6
				z M161.6,268.4c-0.2,0.7-0.6,1.1-1.2,1.4c-0.6,0.2-1.8,0.2-1.9,0.2c0-1.8,0-3.6,0-5.5c0.1,0,1.3-0.1,1.9,0.1
				c0.8,0.2,1.2,0.8,1.4,1.6C161.8,267,161.8,267.7,161.6,268.4z"/>
			<polygon points="116.6,270.8 121.2,270.8 121.2,269.2 116.6,269.2 116.6,264.6 121.8,264.6 121.8,262.9 113.8,262.9 113.8,277.4 
				122.1,277.4 122.1,275.8 116.6,275.8 			"/>
			<path d="M203.8,275.1c-0.4-0.4-0.6-0.9-0.8-1.4c-0.3-1-0.4-1.9-0.4-2.9c0-0.8,0-1.7,0.1-2.5c0-0.6,0.1-1.1,0.3-1.7
				c0.2-1,0.9-1.6,1.9-1.7c0.6-0.1,1.3-0.1,1.9,0c1,0.1,2,0.3,3,0.5c0.1,0,0.2,0,0.2,0l0.5-2c0,0-0.2-0.1-0.3-0.1
				c-0.6-0.1-1.1-0.2-1.7-0.2c-1.1-0.1-2.2-0.2-3.4,0.1c-1.8,0.4-3.4,1.3-4.4,2.9c-0.7,1.1-1,2.4-1.1,3.7c0,0.6,0,1.2,0,1.8
				c0.1,1.1,0.3,2.1,0.7,3.1c0.7,1.6,1.9,2.6,3.7,3c0.7,0.1,1.4,0.2,2.2,0.1c2.5-0.2,4.3-1,4.3-1l0-1.2c0,0-2.1,0.7-4.5,0.7
				C205.2,276,204.4,275.7,203.8,275.1z"/>
			<polygon points="334.2,275.8 334.2,270.8 338.8,270.8 338.8,269.2 334.2,269.2 334.2,264.6 339.3,264.6 339.3,262.9 331.4,262.9 
				331.4,277.4 339.6,277.4 339.6,275.8 			"/>
			<path d="M366.1,276.8v-2c0.2,0.2,0.5,0.4,0.8,0.6c0.3,0.2,0.7,0.3,1,0.4c0.4,0.1,0.7,0.2,1.1,0.3c0.4,0.1,0.7,0.1,1,0.1
				c1.1,0,1.9-0.2,2.4-0.6c0.5-0.4,0.8-1,0.8-1.7c0-0.4-0.1-0.7-0.3-1c-0.2-0.3-0.4-0.6-0.7-0.8s-0.7-0.5-1.1-0.7
				c-0.4-0.2-0.9-0.5-1.4-0.7c-0.5-0.3-1-0.5-1.4-0.8c-0.4-0.3-0.8-0.6-1.2-0.9c-0.3-0.3-0.6-0.7-0.8-1.1c-0.2-0.4-0.3-0.9-0.3-1.4
				c0-0.7,0.1-1.3,0.4-1.8c0.3-0.5,0.7-0.9,1.2-1.2c0.5-0.3,1-0.6,1.6-0.7c0.6-0.2,1.2-0.2,1.9-0.2c1.5,0,2.5,0.2,3.2,0.5v1.9
				c-0.9-0.6-1.3-0.9-2.7-0.9c-0.4,0-0.8,0-1.1,0.1c-0.4,0.1-0.7,0.2-1,0.4c-0.3,0.2-0.5,0.4-0.7,0.7c-0.2,0.3-0.3,0.6-0.3,1
				c0,0.4,0.1,0.7,0.2,1c0.1,0.3,0.3,0.5,0.6,0.8c0.3,0.2,0.6,0.4,1,0.7c0.4,0.2,0.8,0.4,1.4,0.7c0.5,0.3,1,0.5,1.5,0.8
				c0.5,0.3,0.9,0.6,1.2,1c0.4,0.4,0.6,0.7,0.8,1.2c0.2,0.4,0.3,0.9,0.3,1.5c0,0.7-0.1,1.3-0.4,1.8c-0.3,0.5-0.7,0.9-1.2,1.2
				c-0.5,0.3-1,0.5-1.7,0.7c-0.6,0.1-1.3,0.2-2,0.2c-0.2,0-0.5,0-0.9-0.1c-0.3,0-0.7-0.1-1-0.2c-0.4-0.1-0.7-0.2-1-0.3
				C367.3,277.1,366.3,276.9,366.1,276.8z"/>
		</g>
		<g>
			<polygon class="st10" points="76.5,269.8 70.4,269.8 70.4,263.5 67.6,263.5 67.6,277.9 70.4,277.9 70.4,271.5 76.5,271.6 
				76.5,277.9 79.4,277.9 79.4,263.5 76.5,263.5 			"/>
			<path class="st10" d="M165,276.2c-0.5-0.5-1-1.1-1.4-1.8c-0.5-0.9-1.6-2.9-1.6-2.9s1.8-0.8,2.2-2.4c0.3-0.9,0.4-1.8,0.2-2.8
				c-0.2-1.1-0.8-1.9-1.9-2.4c-0.8-0.4-1.6-0.5-2.5-0.5c-1.1,0-4.5,0-4.5,0l0,14.5l2.7,0l0-5.9h0.9c0,0,1.2,2.3,1.7,3.3
				c0.4,0.7,0.8,1.4,1.4,2c0.4,0.4,0.9,0.6,1.5,0.7c0.6,0.1,1.3,0.1,1.9,0c0.3,0,0.6-0.1,0.8-0.2c0-0.3,0-1,0-1S166,277.1,165,276.2
				z M161.6,269c-0.2,0.7-0.6,1.1-1.2,1.4c-0.6,0.2-1.8,0.2-1.9,0.2c0-1.8,0-3.6,0-5.5c0.1,0,1.3-0.1,1.9,0.1
				c0.8,0.2,1.2,0.8,1.4,1.6C161.8,267.5,161.8,268.2,161.6,269z"/>
			<polygon class="st10" points="116.6,271.3 121.2,271.3 121.2,269.8 116.6,269.7 116.6,265.1 121.8,265.1 121.8,263.5 
				113.8,263.5 113.8,277.9 122.1,277.9 122.1,276.4 116.6,276.4 			"/>
			<path class="st10" d="M203.8,275.6c-0.4-0.4-0.6-0.9-0.8-1.4c-0.3-1-0.4-1.9-0.4-2.9c0-0.8,0-1.7,0.1-2.5c0-0.6,0.1-1.1,0.3-1.7
				c0.2-1,0.9-1.6,1.9-1.7c0.6-0.1,1.3-0.1,1.9,0c1,0.1,2,0.3,3,0.5c0.1,0,0.2,0,0.2,0l0.5-2c0,0-0.2-0.1-0.3-0.1
				c-0.6-0.1-1.1-0.2-1.7-0.2c-1.1-0.1-2.2-0.2-3.4,0.1c-1.8,0.4-3.4,1.3-4.4,2.9c-0.7,1.1-1,2.4-1.1,3.7c0,0.6,0,1.2,0,1.8
				c0.1,1.1,0.3,2.1,0.7,3.1c0.7,1.6,1.9,2.6,3.7,3c0.7,0.1,1.4,0.2,2.2,0.1c2.5-0.2,4.3-1,4.3-1l0-1.2c0,0-2.1,0.7-4.5,0.7
				C205.2,276.5,204.4,276.3,203.8,275.6z"/>
			<polygon class="st10" points="334.2,271.3 338.8,271.3 338.8,269.8 334.2,269.7 334.2,265.1 339.3,265.1 339.3,263.5 
				331.4,263.5 331.4,277.9 339.6,277.9 339.6,276.4 334.2,276.4 			"/>
			<path class="st10" d="M366.2,277.3v-2c0.2,0.2,0.5,0.4,0.8,0.6c0.3,0.2,0.7,0.3,1,0.4c0.4,0.1,0.7,0.2,1.1,0.3
				c0.4,0.1,0.7,0.1,1,0.1c1.1,0,1.9-0.2,2.4-0.6c0.5-0.4,0.8-1,0.8-1.7c0-0.4-0.1-0.7-0.3-1c-0.2-0.3-0.4-0.6-0.7-0.8
				c-0.3-0.2-0.7-0.5-1.1-0.7c-0.4-0.2-0.9-0.5-1.4-0.7c-0.5-0.3-1-0.5-1.4-0.8c-0.4-0.3-0.8-0.6-1.2-0.9c-0.3-0.3-0.6-0.7-0.8-1.1
				c-0.2-0.4-0.3-0.9-0.3-1.4c0-0.7,0.1-1.3,0.4-1.8c0.3-0.5,0.7-0.9,1.2-1.2c0.5-0.3,1-0.6,1.6-0.7c0.6-0.2,1.2-0.2,1.9-0.2
				c1.5,0,2.5,0.2,3.2,0.5v1.9c-0.9-0.6-1.3-0.9-2.7-0.9c-0.4,0-0.8,0-1.1,0.1c-0.4,0.1-0.7,0.2-1,0.4c-0.3,0.2-0.5,0.4-0.7,0.7
				c-0.2,0.3-0.3,0.6-0.3,1c0,0.4,0.1,0.7,0.2,1c0.1,0.3,0.3,0.5,0.6,0.8c0.3,0.2,0.6,0.4,1,0.7c0.4,0.2,0.8,0.4,1.4,0.7
				c0.5,0.3,1,0.5,1.5,0.8c0.5,0.3,0.9,0.6,1.2,1c0.4,0.4,0.6,0.7,0.8,1.2c0.2,0.4,0.3,0.9,0.3,1.5c0,0.7-0.1,1.3-0.4,1.8
				c-0.3,0.5-0.7,0.9-1.2,1.2c-0.5,0.3-1,0.5-1.7,0.7c-0.6,0.1-1.3,0.2-2,0.2c-0.2,0-0.5,0-0.9-0.1c-0.3,0-0.7-0.1-1-0.2
				c-0.4-0.1-0.7-0.2-1-0.3C367.3,277.6,366.3,277.5,366.2,277.3z"/>
			<path class="st10" d="M298.3,278.2h-8.8v-14.8h2.3v12.6h6.5V278.2z"/>
			<path class="st10" d="M255.8,271.8c0,4.4-2.1,6.6-6.2,6.6c-4,0-6-2.2-6-6.5v-8.5h2.7v8.6c0,2.4,0.2,4.3,3.5,4.3
				c3,0,3.4-1.8,3.4-4.1v-8.7h2.6V271.8z"/>
		</g>
	</g>
</g>
</svg>
