<svg xmlns="http://www.w3.org/2000/svg" viewBox="0 0 33.2 33.19"><defs><style>.cls-1{fill:#809dce;opacity:0.3;}</style></defs><title>settings icon</title><g id="Layer_2" data-name="Layer 2"><g id="Main_assets" data-name="Main assets"><path id="settings_icon" data-name="settings icon" class="cls-1" d="M32.26,16.93l-2.41-.53a11.82,11.82,0,0,0-.74-4.17l0,0,2.08-1.35a1,1,0,0,0,.3-1.38L29.19,5.83a1,1,0,0,0-1.37-.3l-2,1.34a11,11,0,0,0-3.4-2.36h0l.53-2.41A1,1,0,0,0,22.07.94L17.87,0c-.54-.12-.82.22-.94.76L16.41,3.2a12.08,12.08,0,0,0-4.22.73l-.06,0L10.77,1.82a1,1,0,0,0-1.39-.3L5.76,3.83a1,1,0,0,0-.3,1.37L6.77,7.34a11.51,11.51,0,0,0-2.38,3.49h0L2,10.31a.78.78,0,0,0-1,.66L0,15.17a.84.84,0,0,0,.63,1.1l2.41.53a11.56,11.56,0,0,0,.75,4.13v0L1.73,22.28a1,1,0,0,0-.3,1.38l2.32,3.62a1,1,0,0,0,1.37.3l2.18-1.31a11.75,11.75,0,0,0,3.54,2.39h0l-.53,2.41c-.12.54,0,1.06.54,1.18l4.2.92a1.06,1.06,0,0,0,1.23-.8L16.8,30a11.32,11.32,0,0,0,4.08-.76h0l1.33,2.08a1,1,0,0,0,1.37.3l3.61-2.32a1,1,0,0,0,.3-1.37l-1.33-2.09a14.47,14.47,0,0,0,2.37-3.45h0l2.41.53a1.09,1.09,0,0,0,1.31-.7l.92-4.2C33.3,17.46,32.79,17,32.26,16.93ZM14.09,19.85l-.1-.08-.3-.26-.14-.14-.13-.14-.06-.07a4.07,4.07,0,0,1-.59-1L12.68,18a4,4,0,0,1,1.77-4.92l.26-.14.09,0,.18-.08a4,4,0,0,1,.56-.18l.19,0a4.06,4.06,0,0,1,3.31.85l.15.13.21.2.13.14.06.07.12.15.17.24.1.17a4.06,4.06,0,0,1,.22.43l.07.18.06.18q0,.14.08.28a4.06,4.06,0,0,1-.33,2.76l-.09.18-.16.25-.11.16-.08.1-.17.2-.13.14-.11.11-.1.09-.07.06-.15.12-.08.06-.16.11-.08.05-.34.19-.09,0-.18.08-.18.07-.09,0-.19.05a4.06,4.06,0,0,1-3.31-.57Z"/></g></g></svg>