<?xml version="1.0" encoding="UTF-8" standalone="no"?>
<!-- Generator: Adobe Illustrator 21.0.0, SVG Export Plug-In . SVG Version: 6.00 Build 0)  -->

<svg
   xmlns:dc="http://purl.org/dc/elements/1.1/"
   xmlns:cc="http://creativecommons.org/ns#"
   xmlns:rdf="http://www.w3.org/1999/02/22-rdf-syntax-ns#"
   xmlns:svg="http://www.w3.org/2000/svg"
   xmlns="http://www.w3.org/2000/svg"
   xmlns:sodipodi="http://sodipodi.sourceforge.net/DTD/sodipodi-0.dtd"
   xmlns:inkscape="http://www.inkscape.org/namespaces/inkscape"
   version="1.1"
   id="Layer_1"
   x="0px"
   y="0px"
   viewBox="0 0 386.93228 161.60147"
   xml:space="preserve"
   sodipodi:docname="HercLogo2.svg"
   width="386.93228"
   height="161.60147"
   inkscape:version="0.92.3 (2405546, 2018-03-11)"><metadata
   id="metadata4814"><rdf:RDF><cc:Work
       rdf:about=""><dc:format>image/svg+xml</dc:format><dc:type
         rdf:resource="http://purl.org/dc/dcmitype/StillImage" /><dc:title></dc:title></cc:Work></rdf:RDF></metadata><defs
   id="defs4812" /><sodipodi:namedview
   pagecolor="#ffffff"
   bordercolor="#666666"
   borderopacity="1"
   objecttolerance="10"
   gridtolerance="10"
   guidetolerance="10"
   inkscape:pageopacity="0"
   inkscape:pageshadow="2"
   inkscape:window-width="4800"
   inkscape:window-height="2544"
   id="namedview4810"
   showgrid="false"
   inkscape:zoom="5.5425"
   inkscape:cx="197.98838"
   inkscape:cy="-36.701524"
   inkscape:window-x="14384"
   inkscape:window-y="4"
   inkscape:window-maximized="1"
   inkscape:current-layer="Layer_1" />
<style
   type="text/css"
   id="style4671">
	.st0{display:none;}
	.st1{display:inline;fill-rule:evenodd;clip-rule:evenodd;fill:url(#SVGID_1_);}
	.st2{display:inline;fill-rule:evenodd;clip-rule:evenodd;fill:url(#SVGID_2_);}
	.st3{fill-rule:evenodd;clip-rule:evenodd;fill:url(#SVGID_3_);}
	.st4{fill-rule:evenodd;clip-rule:evenodd;fill:url(#SVGID_4_);}
	.st5{fill:url(#SVGID_5_);}
	.st6{fill:url(#SVGID_6_);}
	.st7{fill:url(#SVGID_7_);}
	.st8{fill:url(#SVGID_8_);}
	.st9{fill-rule:evenodd;clip-rule:evenodd;fill:url(#SVGID_9_);stroke:url(#SVGID_10_);stroke-miterlimit:10;}
	.st10{fill:#FFFFFF;}
</style>
<g
   class="st0"
   id="g4691"
   style="display:none"
   transform="translate(-2.0116243,-1.6970003)">
	<linearGradient
   id="SVGID_1_"
   gradientUnits="userSpaceOnUse"
   x1="19"
   y1="200.02721"
   x2="381"
   y2="200.02721">
		<stop
   offset="0"
   style="stop-color:#E9AC21"
   id="stop4673" />
		<stop
   offset="0.5"
   style="stop-color:#EEE84C"
   id="stop4675" />
		<stop
   offset="1"
   style="stop-color:#E9AC21"
   id="stop4677" />
	</linearGradient>
	<path
   class="st1"
   d="m 378.3,103.3 c -8,-20.3 -32.7,-29.5 -67,-29.5 24.2,2 41.2,9.8 46.8,24.1 14.2,36 -47.5,91.3 -137.9,126.9 -90.4,35.6 -174,47.4 -183.2,9.8 -6.3,-25.7 11.9,-58.4 49.9,-87.8 -48.8,30.5 -74.8,64.2 -66.5,96.7 8.3,32.4 61.3,41.5 127.3,29.5 v 31.3 h -18.5 l -7.5,22 h 166.6 l -7.5,-22 h -18.5 v -69.4 c 80.6,-39.1 131.1,-93.3 116,-131.6 z m -204,200.9 v -37.1 c 5.8,-1.5 11.7,-3.1 17.6,-4.9 v 42 z m 61.6,0 h -17.6 v -50.7 c 3.7,-1.3 15.4,-5.9 17.6,-6.8 z"
   id="path4680"
   inkscape:connector-curvature="0"
   style="clip-rule:evenodd;display:inline;fill:url(#SVGID_1_);fill-rule:evenodd" />
	<linearGradient
   id="SVGID_2_"
   gradientUnits="userSpaceOnUse"
   x1="89.383301"
   y1="149.7952"
   x2="321.73361"
   y2="149.7952">
		<stop
   offset="0"
   style="stop-color:#5D411D"
   id="stop4682" />
		<stop
   offset="0.5"
   style="stop-color:#FCDC57"
   id="stop4684" />
		<stop
   offset="1"
   style="stop-color:#5D411D"
   id="stop4686" />
	</linearGradient>
	<path
   class="st2"
   d="m 271.6,73.8 c -7.1,0 -20.1,0 -20.1,0 H 157 c 0,0 -11.3,0 -17.5,0 -27.7,0 -50.2,22.5 -50.2,50.2 0,27.7 22.5,50.2 50.2,50.2 2.8,0 5.6,-0.2 8.3,-0.7 v 52.4 c 8.5,-2.1 17.4,-4.6 26.4,-7.4 v -58.3 c 5.2,-5 8,-11 10.7,-17.8 h 6.9 v 70.3 c 8.7,-3 17.5,-6.2 26.4,-9.7 v -60.6 h 7.9 c 2.5,6.3 5,12.1 9.7,16.8 v 36.6 c 9.2,-4 18,-8.2 26.4,-12.5 v -10 c 3,0.6 6.1,0.9 9.3,0.9 27.7,0 50.2,-22.5 50.2,-50.2 0,-27.8 -22.4,-50.2 -50.1,-50.2 z m -48.6,45 h -35.8 l -3.8,-6.9 h 43.4 z m 51.7,39.2 c -11.2,1.4 -20.8,-1.9 -28.2,-10.5 -6.4,-7.5 -7.8,-16.4 -5.1,-25.8 3.3,-11.9 13.2,-19.1 25.7,-19.9 5.5,-0.3 10.7,0.5 15.3,3.6 7.2,4.9 10.9,11.8 10.2,20.5 -0.8,9 -6,15.2 -14.3,18.6 -6.5,2.6 -13,1.9 -19.1,-1.6 -5,-2.9 -6.8,-7.5 -6.7,-12.9 0.3,-9.4 6.7,-13.7 14,-15 3.8,-0.7 7.1,0.4 9.6,3.4 2.2,2.6 2.9,5.5 1.7,8.7 -1.2,3.1 -3.8,4.5 -6.9,4.9 -1.3,0.2 -2.7,0 -3.9,-0.4 -1.7,-0.5 -2.5,-2 -2.1,-3.7 0.3,-1.4 1.4,-2.2 3.2,-2.2 0.5,0 1,0.1 1.6,0.1 1.2,-0.1 2,-0.6 2.2,-1.8 0.2,-1.2 -0.6,-2.1 -1.8,-2.4 -3.7,-0.9 -8.3,1.1 -10,4.6 -2.8,5.5 0,11.6 6.3,13.2 9.2,2.3 17.8,-3.1 20,-11.5 1.9,-7.6 -2.4,-15.9 -9.9,-18.5 -15.5,-5.4 -28.2,5.2 -29.5,17.7 -1.5,14.1 7.7,23.1 18.7,24.8 9.4,1.5 17.9,-1.1 24.9,-7.6 8,-7.5 10.4,-19.6 6.3,-29.8 -2.6,-6.3 -6.5,-11.5 -12.5,-14.9 -3.1,-1.8 -6.5,-2.8 -10,-3 -4.2,-0.3 -8.4,-0.2 -12.7,-0.2 -0.9,0 -1.8,0.1 -2.7,0.1 -34.8,0 -69.7,0 -104.5,0 -4.9,0 -9.8,-0.4 -14.7,-0.3 -10.2,0.3 -18.5,4.5 -23.9,13.3 -6,9.9 -5.6,20.1 -0.2,30.1 1.8,3.4 4.7,6 8,7.9 7.4,4.2 15.2,5.9 23.6,3.6 9.7,-2.6 16.1,-10.4 16.3,-20.4 0.3,-14.3 -10.4,-22.3 -21.2,-22.6 -4.2,-0.1 -8.1,0.8 -11.7,3.1 -8,5.2 -9.5,15.3 -3.6,22.7 4.2,5.3 11,7.5 17.1,5.6 2,-0.6 3.6,-1.7 5,-3.3 2.5,-2.9 2.9,-6.2 1.1,-9.7 -1.7,-3.3 -5.2,-5.3 -8.8,-4.9 -0.4,0 -0.7,0.1 -1.1,0.2 -1.7,0.4 -2.5,1.3 -2.2,2.5 0.2,1.2 1.2,1.7 3,1.5 2.3,-0.3 3.3,0.2 3.8,2 0.5,1.7 -0.1,3.2 -1.8,3.8 -3.2,1.2 -6.2,0.6 -8.8,-1.5 -2.5,-2.1 -3.4,-4.8 -2.6,-8 1,-4 4.4,-7 8.7,-7.1 6.3,-0.2 11.5,2.4 14.8,7.8 3.8,6.2 2.4,15.1 -4.9,20.2 -5.4,3.7 -11.3,3.9 -17.3,2 -10.8,-3.3 -15.7,-12 -15.7,-21.1 0,-10.5 7.5,-20.5 19.8,-21.8 6.2,-0.7 12.3,-0.1 17.9,3.1 18.7,10.6 17.9,34.1 6.2,44.9 -9.6,8.9 -25.6,12 -38.7,3.8 -8.2,-5.1 -14.3,-11.9 -16.3,-21.6 -2.4,-12 -0.1,-23 8.8,-31.9 5.9,-6 13.2,-9.6 21.7,-10.4 2.2,-0.2 4.4,-0.3 6.7,-0.3 20.1,0 40.3,0 60.4,0 0,0 0,0 0,0 20.8,0 41.6,0 62.4,0 5.9,0 11.7,0.6 17.2,3 11.9,5.2 18.7,14.3 20.8,27 3.2,19.5 -11.9,36.2 -29.6,38.3 z"
   id="path4689"
   inkscape:connector-curvature="0"
   style="clip-rule:evenodd;display:inline;fill:url(#SVGID_2_);fill-rule:evenodd" />
</g>
<g
   id="g4807"
   transform="translate(-6.8677362,-119.49853)">
	<g
   id="g4711">
		<linearGradient
   id="SVGID_3_"
   gradientUnits="userSpaceOnUse"
   x1="6.7632999"
   y1="187.7211"
   x2="202.46831"
   y2="187.7211">
			<stop
   offset="0"
   style="stop-color:#E9AC21"
   id="stop4693" />
			<stop
   offset="0.5"
   style="stop-color:#EEE84C"
   id="stop4695" />
			<stop
   offset="1"
   style="stop-color:#E9AC21"
   id="stop4697" />
		</linearGradient>
		<path
   class="st3"
   d="m 201,135.4 c -4.3,-11 -17.7,-16 -36.2,-15.9 13.1,1.1 22.3,5.3 25.3,13 7.7,19.4 -25.7,49.4 -74.5,68.6 -48.9,19.2 -94.1,25.6 -99,5.3 -3.4,-13.9 6.4,-31.5 27,-47.5 -26.4,16.5 -40.4,34.7 -35.9,52.3 4.5,17.5 33.1,22.4 68.8,15.9 V 244 h -10 l -4.2,12 h 90.1 l -4.1,-11.9 h -10 v -37.5 c 43.6,-21.2 70.9,-50.5 62.7,-71.2 z M 90.7,244.1 V 224 c 3.1,-0.8 6.3,-1.7 9.5,-2.6 v 22.7 z m 33.3,0 h -9.5 v -27.4 c 2,-0.7 8.3,-3.2 9.5,-3.7 z"
   id="path4700"
   style="clip-rule:evenodd;fill:url(#SVGID_3_);fill-rule:evenodd"
   inkscape:connector-curvature="0" />
		<linearGradient
   id="SVGID_4_"
   gradientUnits="userSpaceOnUse"
   x1="44.813999"
   y1="160.56461"
   x2="170.4276"
   y2="160.56461">
			<stop
   offset="0"
   style="stop-color:#5D411D"
   id="stop4702" />
			<stop
   offset="0.5"
   style="stop-color:#FCDC57"
   id="stop4704" />
			<stop
   offset="1"
   style="stop-color:#5D411D"
   id="stop4706" />
		</linearGradient>
		<path
   class="st4"
   d="m 143.3,119.5 c -3.9,0 -10.8,0 -10.8,0 H 81.4 c 0,0 -6.1,0 -9.5,0 -15,0 -27.1,12.1 -27.1,27.1 0,15 12.1,27.1 27.1,27.1 1.5,0 3,-0.1 4.5,-0.4 v 28.4 c 4.6,-1.2 9.4,-2.5 14.3,-4 v -31.5 c 2.8,-2.7 4.3,-5.9 5.8,-9.6 h 3.7 v 38 c 4.7,-1.6 9.5,-3.4 14.3,-5.2 v -32.8 h 4.3 c 1.4,3.4 2.7,6.5 5.2,9.1 v 19.8 c 5,-2.2 9.7,-4.4 14.3,-6.8 v -5.4 c 1.6,0.3 3.3,0.5 5,0.5 15,0 27.1,-12.1 27.1,-27.1 0,-15.1 -12.1,-27.2 -27.1,-27.2 z M 117,143.8 H 97.7 l -2,-3.7 h 23.5 z m 28,21.2 c -6,0.7 -11.3,-1.1 -15.2,-5.7 -3.5,-4.1 -4.2,-8.8 -2.8,-13.9 1.8,-6.4 7.1,-10.3 13.9,-10.7 3,-0.2 5.8,0.3 8.3,2 3.9,2.6 5.9,6.4 5.5,11.1 -0.4,4.9 -3.2,8.2 -7.7,10 -3.5,1.4 -7,1 -10.3,-0.9 -2.7,-1.5 -3.7,-4 -3.6,-7 0.1,-5.1 3.6,-7.4 7.6,-8.1 2,-0.4 3.8,0.2 5.2,1.9 1.2,1.4 1.6,3 0.9,4.7 -0.7,1.7 -2.1,2.4 -3.7,2.6 -0.7,0.1 -1.5,0 -2.1,-0.2 -0.9,-0.3 -1.3,-1.1 -1.1,-2 0.2,-0.7 0.8,-1.2 1.7,-1.2 0.3,0 0.6,0.1 0.8,0 0.6,0 1.1,-0.3 1.2,-1 0.1,-0.6 -0.3,-1.1 -1,-1.3 -2,-0.5 -4.5,0.6 -5.4,2.5 -1.5,3 0,6.3 3.4,7.1 5,1.3 9.6,-1.7 10.8,-6.2 1,-4.1 -1.3,-8.6 -5.4,-10 -8.4,-2.9 -15.2,2.8 -15.9,9.6 -0.8,7.6 4.2,12.5 10.1,13.4 5.1,0.8 9.7,-0.6 13.5,-4.1 4.3,-4.1 5.6,-10.6 3.4,-16.1 -1.4,-3.4 -3.5,-6.2 -6.8,-8 -1.7,-1 -3.5,-1.5 -5.4,-1.6 -2.3,-0.2 -4.6,-0.1 -6.9,-0.1 -0.5,0 -1,0 -1.4,0 -18.8,0 -37.7,0 -56.5,0 -2.6,0 -5.3,-0.2 -7.9,-0.2 -5.5,0.2 -10,2.4 -12.9,7.2 -3.2,5.3 -3,10.9 -0.1,16.3 1,1.8 2.5,3.2 4.4,4.2 4,2.3 8.2,3.2 12.7,2 5.2,-1.4 8.7,-5.6 8.8,-11.1 0.2,-7.7 -5.6,-12 -11.5,-12.2 -2.3,-0.1 -4.4,0.4 -6.3,1.7 -4.3,2.8 -5.2,8.2 -1.9,12.3 2.3,2.9 5.9,4.1 9.3,3 1.1,-0.3 2,-0.9 2.7,-1.8 1.4,-1.6 1.6,-3.4 0.6,-5.3 -0.9,-1.8 -2.8,-2.9 -4.7,-2.7 -0.2,0 -0.4,0.1 -0.6,0.1 -0.9,0.2 -1.3,0.7 -1.2,1.4 0.1,0.7 0.7,0.9 1.6,0.8 1.3,-0.1 1.8,0.1 2.1,1.1 0.3,0.9 -0.1,1.7 -1,2.1 -1.7,0.7 -3.3,0.3 -4.7,-0.8 -1.4,-1.1 -1.8,-2.6 -1.4,-4.3 0.6,-2.2 2.4,-3.8 4.7,-3.8 3.4,-0.1 6.2,1.3 8,4.2 2.1,3.4 1.3,8.2 -2.7,10.9 -2.9,2 -6.1,2.1 -9.3,1.1 -5.9,-1.8 -8.5,-6.5 -8.5,-11.4 0,-5.7 4.1,-11.1 10.7,-11.8 3.4,-0.4 6.6,-0.1 9.7,1.7 10.1,5.7 9.7,18.4 3.3,24.3 -5.2,4.8 -13.8,6.5 -20.9,2.1 -4.4,-2.8 -7.7,-6.4 -8.8,-11.7 -1.3,-6.5 0,-12.4 4.8,-17.2 3.2,-3.2 7.1,-5.2 11.7,-5.6 1.2,-0.1 2.4,-0.2 3.6,-0.2 10.9,0 21.8,0 32.7,0 0,0 0,0 0,0 11.2,0 22.5,0 33.7,0 3.2,0 6.3,0.3 9.3,1.6 6.4,2.8 10.1,7.7 11.2,14.6 1.4,10.4 -6.8,19.4 -16.3,20.6 z"
   id="path4709"
   style="clip-rule:evenodd;fill:url(#SVGID_4_);fill-rule:evenodd"
   inkscape:connector-curvature="0" />
	</g>
	<g
   id="g4749">
		<linearGradient
   id="SVGID_5_"
   gradientUnits="userSpaceOnUse"
   x1="169.1606"
   y1="226.55051"
   x2="388.03189"
   y2="226.55051">
			<stop
   offset="0"
   style="stop-color:#E9AC21"
   id="stop4713" />
			<stop
   offset="0.5"
   style="stop-color:#EEE84C"
   id="stop4715" />
			<stop
   offset="1"
   style="stop-color:#E9AC21"
   id="stop4717" />
		</linearGradient>
		<polygon
   class="st5"
   points="182.5,259.1 182.4,230.4 209.9,230.4 209.8,259.1 222.8,259.2 222.8,193.9 209.8,193.9 209.8,222.4 182.4,222.4 182.4,193.9 170,193.9 170,259.1 "
   id="polygon4720"
   style="fill:url(#SVGID_5_)" />
		<linearGradient
   id="SVGID_6_"
   gradientUnits="userSpaceOnUse"
   x1="169.16051"
   y1="226.2767"
   x2="388.03189"
   y2="226.2767">
			<stop
   offset="0"
   style="stop-color:#E9AC21"
   id="stop4722" />
			<stop
   offset="0.5"
   style="stop-color:#EEE84C"
   id="stop4724" />
			<stop
   offset="1"
   style="stop-color:#E9AC21"
   id="stop4726" />
		</linearGradient>
		<path
   class="st6"
   d="m 327.1,250.5 c -2.5,-2.4 -4.5,-5 -6.2,-7.9 -2.4,-4 -7.1,-12.9 -7.1,-12.9 0,0 8,-3.8 10.1,-10.6 1.5,-4.1 1.7,-8.3 0.9,-12.6 -0.9,-5 -3.7,-8.6 -8.4,-10.7 -3.5,-1.6 -7.3,-2.4 -11.1,-2.4 -4.8,-0.1 -20.4,0 -20.4,0 v 65.8 h 12.3 l 0.1,-27.2 h 3.9 c 0,0 5.3,10.4 7.8,14.9 1.7,3.2 3.8,6.3 6.5,8.8 1.9,1.7 4,2.9 6.6,3.3 2.9,0.5 5.8,0.5 8.6,0.1 1.3,-0.2 2.5,-0.4 3.7,-1 0,-1.4 0,-4.3 0,-4.3 0,0 -3.2,0.7 -7.3,-3.3 z M 311.5,218 c -0.7,3 -2.5,5.1 -5.5,6.2 -2.5,0.9 -8.3,1 -8.6,0.9 0,-8.2 0,-16.4 0,-24.6 0.4,-0.1 6.1,-0.4 8.4,0.3 3.7,1.1 5.5,3.7 6.1,7.3 0.5,3.3 0.3,6.6 -0.4,9.9 z"
   id="path4729"
   style="fill:url(#SVGID_6_)"
   inkscape:connector-curvature="0" />
		<linearGradient
   id="SVGID_7_"
   gradientUnits="userSpaceOnUse"
   x1="169.1608"
   y1="226.55051"
   x2="388.03201"
   y2="226.55051">
			<stop
   offset="0"
   style="stop-color:#E9AC21"
   id="stop4731" />
			<stop
   offset="0.5"
   style="stop-color:#EEE84C"
   id="stop4733" />
			<stop
   offset="1"
   style="stop-color:#E9AC21"
   id="stop4735" />
		</linearGradient>
		<polygon
   class="st7"
   points="273,201.4 272.9,193.9 237.2,193.9 237.2,259.2 274.3,259.2 274.3,252.1 249.8,252.1 249.8,229.3 270.6,229.4 270.6,222.3 249.8,222.2 249.8,201.4 "
   id="polygon4738"
   style="fill:url(#SVGID_7_)" />
		<linearGradient
   id="SVGID_8_"
   gradientUnits="userSpaceOnUse"
   x1="169.1602"
   y1="226.2477"
   x2="388.0318"
   y2="226.2477">
			<stop
   offset="0"
   style="stop-color:#E9AC21"
   id="stop4740" />
			<stop
   offset="0.5"
   style="stop-color:#EEE84C"
   id="stop4742" />
			<stop
   offset="1"
   style="stop-color:#E9AC21"
   id="stop4744" />
		</linearGradient>
		<path
   class="st8"
   d="m 357.8,248.2 c -1.7,-1.9 -2.8,-4.1 -3.6,-6.5 -1.5,-4.3 -2,-8.8 -2,-13.3 0,-3.8 0,-7.6 0.3,-11.3 0.2,-2.5 0.6,-5 1.2,-7.5 1.1,-4.5 4.2,-7.1 8.6,-7.8 2.8,-0.4 5.8,-0.4 8.6,-0.2 4.6,0.3 9.1,1.1 13.5,2.2 0.3,0.1 1.1,0.1 1.1,0.1 l 2.3,-9.2 c 0,0 -1,-0.3 -1.4,-0.3 -2.5,-0.4 -5.1,-0.7 -7.6,-1 -5,-0.5 -10.1,-0.7 -15.1,0.3 -8.3,1.7 -15.2,5.7 -19.9,13 -3.3,5.1 -4.7,10.8 -4.9,16.8 -0.1,2.6 0,5.3 0.2,7.9 0.3,4.8 1.2,9.5 3.1,13.9 3.2,7.3 8.7,11.9 16.6,13.5 3.2,0.6 6.5,0.8 9.8,0.5 11.5,-1.1 19.3,-4.6 19.3,-4.6 v -5.5 c 0,0 -9.3,3.1 -20.5,3 -3.6,0 -6.9,-1.2 -9.6,-4 z"
   id="path4747"
   style="fill:url(#SVGID_8_)"
   inkscape:connector-curvature="0" />
	</g>
	<g
   id="g4805">
		<g
   id="g4767">
			<linearGradient
   id="SVGID_9_"
   gradientUnits="userSpaceOnUse"
   x1="55.181301"
   y1="270.79471"
   x2="393.23669"
   y2="270.79471">
				<stop
   offset="0"
   style="stop-color:#5D411D"
   id="stop4751" />
				<stop
   offset="0.5"
   style="stop-color:#FCDC57"
   id="stop4753" />
				<stop
   offset="1"
   style="stop-color:#5D411D"
   id="stop4755" />
			</linearGradient>
			<linearGradient
   id="SVGID_10_"
   gradientUnits="userSpaceOnUse"
   x1="54.681301"
   y1="270.79471"
   x2="393.73669"
   y2="270.79471">
				<stop
   offset="0"
   style="stop-color:#5D411D"
   id="stop4758" />
				<stop
   offset="0.5"
   style="stop-color:#FCDC57"
   id="stop4760" />
				<stop
   offset="1"
   style="stop-color:#5D411D"
   id="stop4762" />
			</linearGradient>
			<rect
   x="55.200001"
   y="261.10001"
   class="st9"
   width="338.10001"
   height="19.5"
   id="rect4765"
   style="clip-rule:evenodd;fill:url(#SVGID_9_);fill-rule:evenodd;stroke:url(#SVGID_10_);stroke-miterlimit:10" />
		</g>
		<g
   id="g4785">
			<path
   d="m 298.4,277.7 h -8.8 v -14.8 h 2.3 v 12.6 h 6.5 z"
   id="path4769"
   inkscape:connector-curvature="0" />
			<path
   d="m 255.9,271.3 c 0,4.4 -2.1,6.6 -6.2,6.6 -4,0 -6,-2.2 -6,-6.5 v -8.5 h 2.7 v 8.6 c 0,2.4 0.2,4.3 3.5,4.3 3,0 3.4,-1.8 3.4,-4.1 V 263 h 2.6 z"
   id="path4771"
   inkscape:connector-curvature="0" />
			<polygon
   points="70.4,277.4 70.4,271 76.5,271 76.5,277.4 79.4,277.4 79.4,262.9 76.5,262.9 76.5,269.2 70.4,269.2 70.4,262.9 67.6,262.9 67.6,277.4 "
   id="polygon4773" />
			<path
   d="m 165,275.6 c -0.5,-0.5 -1,-1.1 -1.4,-1.8 -0.5,-0.9 -1.6,-2.9 -1.6,-2.9 0,0 1.8,-0.8 2.2,-2.4 0.3,-0.9 0.4,-1.8 0.2,-2.8 -0.2,-1.1 -0.8,-1.9 -1.9,-2.4 -0.8,-0.4 -1.6,-0.5 -2.5,-0.5 -1.1,0 -4.5,0 -4.5,0 v 14.5 h 2.7 v -5.9 h 0.9 c 0,0 1.2,2.3 1.7,3.3 0.4,0.7 0.8,1.4 1.4,2 0.4,0.4 0.9,0.6 1.5,0.7 0.6,0.1 1.3,0.1 1.9,0 0.3,0 0.6,-0.1 0.8,-0.2 0,-0.3 0,-1 0,-1 0,0 -0.4,0.3 -1.4,-0.6 z m -3.4,-7.2 c -0.2,0.7 -0.6,1.1 -1.2,1.4 -0.6,0.2 -1.8,0.2 -1.9,0.2 0,-1.8 0,-3.6 0,-5.5 0.1,0 1.3,-0.1 1.9,0.1 0.8,0.2 1.2,0.8 1.4,1.6 0,0.8 0,1.5 -0.2,2.2 z"
   id="path4775"
   inkscape:connector-curvature="0" />
			<polygon
   points="121.8,264.6 121.8,262.9 113.8,262.9 113.8,277.4 122.1,277.4 122.1,275.8 116.6,275.8 116.6,270.8 121.2,270.8 121.2,269.2 116.6,269.2 116.6,264.6 "
   id="polygon4777" />
			<path
   d="m 203.8,275.1 c -0.4,-0.4 -0.6,-0.9 -0.8,-1.4 -0.3,-1 -0.4,-1.9 -0.4,-2.9 0,-0.8 0,-1.7 0.1,-2.5 0,-0.6 0.1,-1.1 0.3,-1.7 0.2,-1 0.9,-1.6 1.9,-1.7 0.6,-0.1 1.3,-0.1 1.9,0 1,0.1 2,0.3 3,0.5 0.1,0 0.2,0 0.2,0 l 0.5,-2 c 0,0 -0.2,-0.1 -0.3,-0.1 -0.6,-0.1 -1.1,-0.2 -1.7,-0.2 -1.1,-0.1 -2.2,-0.2 -3.4,0.1 -1.8,0.4 -3.4,1.3 -4.4,2.9 -0.7,1.1 -1,2.4 -1.1,3.7 0,0.6 0,1.2 0,1.8 0.1,1.1 0.3,2.1 0.7,3.1 0.7,1.6 1.9,2.6 3.7,3 0.7,0.1 1.4,0.2 2.2,0.1 2.5,-0.2 4.3,-1 4.3,-1 v -1.2 c 0,0 -2.1,0.7 -4.5,0.7 -0.8,-0.3 -1.6,-0.6 -2.2,-1.2 z"
   id="path4779"
   inkscape:connector-curvature="0" />
			<polygon
   points="334.2,264.6 339.3,264.6 339.3,262.9 331.4,262.9 331.4,277.4 339.6,277.4 339.6,275.8 334.2,275.8 334.2,270.8 338.8,270.8 338.8,269.2 334.2,269.2 "
   id="polygon4781" />
			<path
   d="m 366.1,276.8 v -2 c 0.2,0.2 0.5,0.4 0.8,0.6 0.3,0.2 0.7,0.3 1,0.4 0.4,0.1 0.7,0.2 1.1,0.3 0.4,0.1 0.7,0.1 1,0.1 1.1,0 1.9,-0.2 2.4,-0.6 0.5,-0.4 0.8,-1 0.8,-1.7 0,-0.4 -0.1,-0.7 -0.3,-1 -0.2,-0.3 -0.4,-0.6 -0.7,-0.8 -0.3,-0.2 -0.7,-0.5 -1.1,-0.7 -0.4,-0.2 -0.9,-0.5 -1.4,-0.7 -0.5,-0.3 -1,-0.5 -1.4,-0.8 -0.4,-0.3 -0.8,-0.6 -1.2,-0.9 -0.3,-0.3 -0.6,-0.7 -0.8,-1.1 -0.2,-0.4 -0.3,-0.9 -0.3,-1.4 0,-0.7 0.1,-1.3 0.4,-1.8 0.3,-0.5 0.7,-0.9 1.2,-1.2 0.5,-0.3 1,-0.6 1.6,-0.7 0.6,-0.2 1.2,-0.2 1.9,-0.2 1.5,0 2.5,0.2 3.2,0.5 v 1.9 c -0.9,-0.6 -1.3,-0.9 -2.7,-0.9 -0.4,0 -0.8,0 -1.1,0.1 -0.4,0.1 -0.7,0.2 -1,0.4 -0.3,0.2 -0.5,0.4 -0.7,0.7 -0.2,0.3 -0.3,0.6 -0.3,1 0,0.4 0.1,0.7 0.2,1 0.1,0.3 0.3,0.5 0.6,0.8 0.3,0.2 0.6,0.4 1,0.7 0.4,0.2 0.8,0.4 1.4,0.7 0.5,0.3 1,0.5 1.5,0.8 0.5,0.3 0.9,0.6 1.2,1 0.4,0.4 0.6,0.7 0.8,1.2 0.2,0.4 0.3,0.9 0.3,1.5 0,0.7 -0.1,1.3 -0.4,1.8 -0.3,0.5 -0.7,0.9 -1.2,1.2 -0.5,0.3 -1,0.5 -1.7,0.7 -0.6,0.1 -1.3,0.2 -2,0.2 -0.2,0 -0.5,0 -0.9,-0.1 -0.3,0 -0.7,-0.1 -1,-0.2 -0.4,-0.1 -0.7,-0.2 -1,-0.3 0,-0.2 -1,-0.4 -1.2,-0.5 z"
   id="path4783"
   inkscape:connector-curvature="0" />
		</g>
		<g
   id="g4803">
			<polygon
   class="st10"
   points="70.4,277.9 70.4,271.5 76.5,271.6 76.5,277.9 79.4,277.9 79.4,263.5 76.5,263.5 76.5,269.8 70.4,269.8 70.4,263.5 67.6,263.5 67.6,277.9 "
   id="polygon4787"
   style="fill:#ffffff" />
			<path
   class="st10"
   d="m 165,276.2 c -0.5,-0.5 -1,-1.1 -1.4,-1.8 -0.5,-0.9 -1.6,-2.9 -1.6,-2.9 0,0 1.8,-0.8 2.2,-2.4 0.3,-0.9 0.4,-1.8 0.2,-2.8 -0.2,-1.1 -0.8,-1.9 -1.9,-2.4 -0.8,-0.4 -1.6,-0.5 -2.5,-0.5 -1.1,0 -4.5,0 -4.5,0 v 14.5 h 2.7 V 272 h 0.9 c 0,0 1.2,2.3 1.7,3.3 0.4,0.7 0.8,1.4 1.4,2 0.4,0.4 0.9,0.6 1.5,0.7 0.6,0.1 1.3,0.1 1.9,0 0.3,0 0.6,-0.1 0.8,-0.2 0,-0.3 0,-1 0,-1 0,0 -0.4,0.3 -1.4,-0.6 z m -3.4,-7.2 c -0.2,0.7 -0.6,1.1 -1.2,1.4 -0.6,0.2 -1.8,0.2 -1.9,0.2 0,-1.8 0,-3.6 0,-5.5 0.1,0 1.3,-0.1 1.9,0.1 0.8,0.2 1.2,0.8 1.4,1.6 0,0.7 0,1.4 -0.2,2.2 z"
   id="path4789"
   inkscape:connector-curvature="0"
   style="fill:#ffffff" />
			<polygon
   class="st10"
   points="121.8,265.1 121.8,263.5 113.8,263.5 113.8,277.9 122.1,277.9 122.1,276.4 116.6,276.4 116.6,271.3 121.2,271.3 121.2,269.8 116.6,269.7 116.6,265.1 "
   id="polygon4791"
   style="fill:#ffffff" />
			<path
   class="st10"
   d="m 203.8,275.6 c -0.4,-0.4 -0.6,-0.9 -0.8,-1.4 -0.3,-1 -0.4,-1.9 -0.4,-2.9 0,-0.8 0,-1.7 0.1,-2.5 0,-0.6 0.1,-1.1 0.3,-1.7 0.2,-1 0.9,-1.6 1.9,-1.7 0.6,-0.1 1.3,-0.1 1.9,0 1,0.1 2,0.3 3,0.5 0.1,0 0.2,0 0.2,0 l 0.5,-2 c 0,0 -0.2,-0.1 -0.3,-0.1 -0.6,-0.1 -1.1,-0.2 -1.7,-0.2 -1.1,-0.1 -2.2,-0.2 -3.4,0.1 -1.8,0.4 -3.4,1.3 -4.4,2.9 -0.7,1.1 -1,2.4 -1.1,3.7 0,0.6 0,1.2 0,1.8 0.1,1.1 0.3,2.1 0.7,3.1 0.7,1.6 1.9,2.6 3.7,3 0.7,0.1 1.4,0.2 2.2,0.1 2.5,-0.2 4.3,-1 4.3,-1 v -1.2 c 0,0 -2.1,0.7 -4.5,0.7 -0.8,-0.3 -1.6,-0.5 -2.2,-1.2 z"
   id="path4793"
   inkscape:connector-curvature="0"
   style="fill:#ffffff" />
			<polygon
   class="st10"
   points="339.3,265.1 339.3,263.5 331.4,263.5 331.4,277.9 339.6,277.9 339.6,276.4 334.2,276.4 334.2,271.3 338.8,271.3 338.8,269.8 334.2,269.7 334.2,265.1 "
   id="polygon4795"
   style="fill:#ffffff" />
			<path
   class="st10"
   d="m 366.2,277.3 v -2 c 0.2,0.2 0.5,0.4 0.8,0.6 0.3,0.2 0.7,0.3 1,0.4 0.4,0.1 0.7,0.2 1.1,0.3 0.4,0.1 0.7,0.1 1,0.1 1.1,0 1.9,-0.2 2.4,-0.6 0.5,-0.4 0.8,-1 0.8,-1.7 0,-0.4 -0.1,-0.7 -0.3,-1 -0.2,-0.3 -0.4,-0.6 -0.7,-0.8 -0.3,-0.2 -0.7,-0.5 -1.1,-0.7 -0.4,-0.2 -0.9,-0.5 -1.4,-0.7 -0.5,-0.3 -1,-0.5 -1.4,-0.8 -0.4,-0.3 -0.8,-0.6 -1.2,-0.9 -0.3,-0.3 -0.6,-0.7 -0.8,-1.1 -0.2,-0.4 -0.3,-0.9 -0.3,-1.4 0,-0.7 0.1,-1.3 0.4,-1.8 0.3,-0.5 0.7,-0.9 1.2,-1.2 0.5,-0.3 1,-0.6 1.6,-0.7 0.6,-0.2 1.2,-0.2 1.9,-0.2 1.5,0 2.5,0.2 3.2,0.5 v 1.9 c -0.9,-0.6 -1.3,-0.9 -2.7,-0.9 -0.4,0 -0.8,0 -1.1,0.1 -0.4,0.1 -0.7,0.2 -1,0.4 -0.3,0.2 -0.5,0.4 -0.7,0.7 -0.2,0.3 -0.3,0.6 -0.3,1 0,0.4 0.1,0.7 0.2,1 0.1,0.3 0.3,0.5 0.6,0.8 0.3,0.2 0.6,0.4 1,0.7 0.4,0.2 0.8,0.4 1.4,0.7 0.5,0.3 1,0.5 1.5,0.8 0.5,0.3 0.9,0.6 1.2,1 0.4,0.4 0.6,0.7 0.8,1.2 0.2,0.4 0.3,0.9 0.3,1.5 0,0.7 -0.1,1.3 -0.4,1.8 -0.3,0.5 -0.7,0.9 -1.2,1.2 -0.5,0.3 -1,0.5 -1.7,0.7 -0.6,0.1 -1.3,0.2 -2,0.2 -0.2,0 -0.5,0 -0.9,-0.1 -0.3,0 -0.7,-0.1 -1,-0.2 -0.4,-0.1 -0.7,-0.2 -1,-0.3 -0.1,-0.2 -1.1,-0.3 -1.2,-0.5 z"
   id="path4797"
   inkscape:connector-curvature="0"
   style="fill:#ffffff" />
			<path
   class="st10"
   d="m 298.3,278.2 h -8.8 v -14.8 h 2.3 V 276 h 6.5 z"
   id="path4799"
   inkscape:connector-curvature="0"
   style="fill:#ffffff" />
			<path
   class="st10"
   d="m 255.8,271.8 c 0,4.4 -2.1,6.6 -6.2,6.6 -4,0 -6,-2.2 -6,-6.5 v -8.5 h 2.7 v 8.6 c 0,2.4 0.2,4.3 3.5,4.3 3,0 3.4,-1.8 3.4,-4.1 v -8.7 h 2.6 z"
   id="path4801"
   inkscape:connector-curvature="0"
   style="fill:#ffffff" />
		</g>
	</g>
</g>
</svg>