<svg xmlns="http://www.w3.org/2000/svg" viewBox="0 0 22.75 27.09"><defs><style>.cls-1{fill:#233768;}.cls-2{fill:#f22a59;}</style></defs><title>bell</title><g id="Layer_2" data-name="Layer 2"><g id="mobile_wallet" data-name="mobile wallet"><g id="bell"><path class="cls-1" d="M12.13,22.75A40,40,0,0,1,2.94,22,4.34,4.34,0,0,1,.49,20.73a1.43,1.43,0,0,1,.16-2.29c3.06-2,3.62-5.05,3.69-8.33A7.53,7.53,0,0,1,5.87,5.19,7.44,7.44,0,0,1,7,4.12C8,3.27,8,3.29,8.95,4.3A3.19,3.19,0,0,0,14,4c.38-.58.66-.62,1.2-.27a6.63,6.63,0,0,1,3.16,5.7,21.83,21.83,0,0,0,.49,4.5,6.94,6.94,0,0,0,2.82,4.19c1.46,1,1.37,2.38-.2,3.27a11.65,11.65,0,0,1-4.73,1.16A39.36,39.36,0,0,1,12.13,22.75Z"/><path class="cls-1" d="M11.47,23.8c.82,0,1.64,0,2.45,0,.59,0,.75.18.65.72a3.39,3.39,0,0,1-3.22,2.58,3.34,3.34,0,0,1-3.14-2.55c-.1-.53,0-.78.62-.75C9.71,23.84,10.59,23.8,11.47,23.8Z"/><path class="cls-1" d="M11.39,0a2.13,2.13,0,0,1,2.13,2.22,2.14,2.14,0,0,1-2.14,2.12A2.2,2.2,0,0,1,9.23,2.11,2.19,2.19,0,0,1,11.39,0Z"/></g><circle class="cls-2" cx="17.26" cy="12.73" r="4.53"/></g></g></svg>