<svg xmlns="http://www.w3.org/2000/svg" viewBox="0 0 751 1335.22"><defs><style>.cls-1,.cls-10{fill:#d8d8d8;}.cls-1{opacity:0.31;}.cls-15,.cls-2,.cls-22,.cls-7{fill:#091141;}.cls-3{fill:none;stroke:#f3c736;stroke-width:0.5px;}.cls-15,.cls-18,.cls-22,.cls-25,.cls-4,.cls-7{isolation:isolate;}.cls-4{font-size:10.88px;}.cls-19,.cls-4{fill:#fff;}.cls-18,.cls-25,.cls-4{font-family:DINPro-Bold, DINPro;font-weight:700;}.cls-5{letter-spacing:-0.03em;}.cls-6{letter-spacing:-0.01em;}.cls-7{font-size:15.88px;}.cls-15,.cls-7{font-family:DINPro-Medium, DINPro;}.cls-8{letter-spacing:-0.01em;}.cls-9{letter-spacing:-0.02em;}.cls-11{letter-spacing:-0.02em;}.cls-12{letter-spacing:-0.01em;}.cls-13{letter-spacing:-0.03em;}.cls-14{letter-spacing:-0.03em;}.cls-15{font-size:10.59px;}.cls-16{letter-spacing:0em;}.cls-17{letter-spacing:-0.01em;}.cls-18{font-size:14.92px;}.cls-18,.cls-25{fill:#aaa;}.cls-20{fill:#233768;}.cls-21{fill:#f22a59;}.cls-22{font-size:18.15px;font-family:DINPro-Regular, DINPro;}.cls-23{letter-spacing:-0.01em;}.cls-24{fill:#ecc41f;}.cls-25{font-size:12.37px;}</style></defs><title>full mobile</title><g id="Layer_2" data-name="Layer 2"><g id="mobile_wallet" data-name="mobile wallet"><rect class="cls-1" x="1" y="931.07" width="750" height="404.15"/><rect class="cls-2" width="750" height="224.19"/><g id="blockscanner"><path id="path-1" class="cls-2" d="M617.27,960.63l108.57-.12a.58.58,0,0,1,.64.5l0,15a.58.58,0,0,1-.64.5l-108.57.12a.58.58,0,0,1-.64-.5l0-15A.58.58,0,0,1,617.27,960.63Z"/><path class="cls-3" d="M617,960.63l109-.13a.58.58,0,0,1,.64.49l0,15a.58.58,0,0,1-.64.49l-109,.13a.58.58,0,0,1-.64-.49l0-15A.58.58,0,0,1,617,960.63Z"/><g id="SUBMIT"><text class="cls-4" transform="translate(628.41 971.96)">B<tspan class="cls-5" x="7.16" y="0">L</tspan><tspan x="13.13" y="0">OCK S</tspan><tspan class="cls-6" x="43.06" y="0">C</tspan><tspan x="49.68" y="0">ANNER</tspan></text></g></g><g id="Upload-Image"><text class="cls-7" transform="translate(41 974.59)">RECENT TRANS<tspan class="cls-8" x="113.77" y="0">A</tspan><tspan class="cls-9" x="123.53" y="0">C</tspan><tspan x="133.19" y="0">TIONS</tspan></text></g><rect id="grey_line" data-name="grey line" class="cls-10" x="383.21" y="640.09" width="1.71" height="686.01" transform="translate(-599.03 1367.16) rotate(-90)"/><rect id="grey_bg" data-name="grey bg" class="cls-1" x="41.77" y="1001.19" width="685.31" height="40.87"/><g id="Upload-Image-2" data-name="Upload-Image"><text class="cls-7" transform="translate(300.88 1025.47)">Re<tspan class="cls-11" x="18.96" y="0">c</tspan><tspan x="26.38" y="0">ei</tspan><tspan class="cls-12" x="39.13" y="0">v</tspan><tspan x="46.46" y="0">ed He</tspan><tspan class="cls-13" x="87.15" y="0">r</tspan><tspan x="93.63" y="0">c f</tspan><tspan class="cls-14" x="110.35" y="0">r</tspan><tspan x="116.83" y="0">om Logan</tspan></text></g><g id="Upload-Image-3" data-name="Upload-Image"><text class="cls-7" transform="translate(561.35 1025.47)">+8000 HERC</text></g><g id="Upload-Image-4" data-name="Upload-Image"><text class="cls-7" transform="translate(62.18 1026.12)">16:02</text></g><g id="Upload-Image-5" data-name="Upload-Image"><text class="cls-15" transform="translate(106.65 1026.12)">23/09/18</text></g><rect class="cls-1" x="41.77" y="1045.48" width="685.31" height="40.87"/><g id="Upload-Image-6" data-name="Upload-Image"><text class="cls-7" transform="translate(300.88 1069.76)">Sent He<tspan class="cls-14" x="55.73" y="0">r</tspan><tspan x="62.21" y="0">c </tspan><tspan class="cls-16" x="73.73" y="0">t</tspan><tspan x="79.11" y="0">o Mi</tspan><tspan class="cls-17" x="108.56" y="0">k</tspan><tspan x="117.15" y="0">e N</tspan></text></g><g id="Upload-Image-7" data-name="Upload-Image"><text class="cls-7" transform="translate(561.35 1069.76)">+1000 HERC</text></g><g id="Upload-Image-8" data-name="Upload-Image"><text class="cls-15" transform="translate(106.65 1070.41)">22/09/18</text></g><g id="Upload-Image-9" data-name="Upload-Image"><text class="cls-18" transform="translate(662.57 1018.65)">$3687</text></g><g id="Upload-Image-10" data-name="Upload-Image"><text class="cls-18" transform="translate(662.57 1062.48)">$468</text></g><rect class="cls-19" x="661.46" y="39.89" width="37.1" height="2.78"/><rect class="cls-19" x="661.46" y="47.89" width="37.1" height="2.78"/><rect class="cls-19" x="661.46" y="55.89" width="37.1" height="2.78"/><g id="bell"><path class="cls-20" d="M680.76,198.57a40,40,0,0,1-9.19-.73,4.34,4.34,0,0,1-2.45-1.29,1.43,1.43,0,0,1,.16-2.29c3.06-2,3.62-5.05,3.69-8.33A7.53,7.53,0,0,1,674.5,181a7.44,7.44,0,0,1,1.1-1.08c1.07-.84,1.08-.83,2,.18a3.19,3.19,0,0,0,5.09-.32c.38-.58.66-.62,1.2-.27a6.63,6.63,0,0,1,3.16,5.7,21.83,21.83,0,0,0,.49,4.5,6.94,6.94,0,0,0,2.82,4.19c1.46,1,1.37,2.38-.2,3.27a11.65,11.65,0,0,1-4.73,1.16A39.36,39.36,0,0,1,680.76,198.57Z"/><path class="cls-20" d="M680.1,199.61c.82,0,1.64,0,2.45,0,.59,0,.75.18.65.72A3.39,3.39,0,0,1,680,202.9a3.34,3.34,0,0,1-3.14-2.55c-.1-.53,0-.78.62-.75C678.35,199.65,679.23,199.61,680.1,199.61Z"/><path class="cls-20" d="M680,175.81a2.17,2.17,0,0,1,0,4.34,2.17,2.17,0,0,1,0-4.34Z"/></g><circle class="cls-21" cx="685.89" cy="188.55" r="4.53"/><g id="Upload-Image-11" data-name="Upload-Image"><text class="cls-22" transform="translate(107.71 355.51)">HERC</text></g><g id="Upload-Image-12" data-name="Upload-Image"><text class="cls-22" transform="translate(271.08 355.51)"><tspan class="cls-23">A</tspan><tspan x="10.91" y="0">GLD</tspan></text></g><g id="Upload-Image-13" data-name="Upload-Image"><text class="cls-22" transform="translate(439.54 355.51)">ETH</text></g><g id="Upload-Image-14" data-name="Upload-Image"><text class="cls-22" transform="translate(574.22 355.51)">+ADD NEW</text></g><rect id="gold_highligther" data-name="gold highligther" class="cls-24" x="129.87" y="282.01" width="2.67" height="163.21" transform="translate(-232.42 494.82) rotate(-90)"/><rect class="cls-10" x="292.4" y="282.01" width="2.67" height="163.21" transform="translate(-69.89 657.36) rotate(-90)"/><rect class="cls-10" x="454.93" y="282.01" width="2.67" height="163.21" transform="translate(92.64 819.89) rotate(-90)"/><rect class="cls-10" x="617.46" y="282.01" width="2.67" height="163.21" transform="translate(255.18 982.42) rotate(-90)"/><g id="Upload-Image-15" data-name="Upload-Image"><text class="cls-25" transform="translate(124.29 380.8)">66%</text></g><g id="Upload-Image-16" data-name="Upload-Image"><text class="cls-25" transform="translate(288.58 380.8)">31%</text></g><g id="Upload-Image-17" data-name="Upload-Image"><text class="cls-25" transform="translate(455.62 380.8)">3%</text></g></g></g></svg>