<svg xmlns="http://www.w3.org/2000/svg" viewBox="0 0 184.91 45.69"><defs><style>.cls-1{fill:#091141;}.cls-2{fill:none;stroke:#f3c736;stroke-width:0.5px;}.cls-3{isolation:isolate;font-size:30.57px;fill:#fff;font-family:DINPro-Regular, DINPro;}</style></defs><title>send</title><g id="Layer_2" data-name="Layer 2"><g id="mobile_wallet" data-name="mobile wallet"><g id="send"><path id="path-1" class="cls-1" d="M1.7.46,183.16.25a1.28,1.28,0,0,1,1.07,1.41l0,42.17a1.28,1.28,0,0,1-1.07,1.41L1.76,45.45A1.28,1.28,0,0,1,.69,44l0-42.17A1.28,1.28,0,0,1,1.7.46Z"/><path class="cls-2" d="M1.32.46,183.54.25a1.25,1.25,0,0,1,1.07,1.37l0,42.25a1.25,1.25,0,0,1-1.07,1.37L1.37,45.44A1.25,1.25,0,0,1,.3,44.08l0-42.25A1.25,1.25,0,0,1,1.32.46Z"/><g id="SUBMIT"><text class="cls-3" transform="translate(52.83 32.31)">SEND</text></g></g></g></g></svg>